<?xml version="1.0" encoding="UTF-8" standalone="no"?>
<!DOCTYPE svg PUBLIC "-//W3C//DTD SVG 1.1//EN"
 "http://www.w3.org/Graphics/SVG/1.1/DTD/svg11.dtd">
<!-- Generated by graphviz version 15.1.0 (0)
 -->
<!-- Pages: 1 -->
<svg width="180pt" height="260pt"
 viewBox="0.00 0.00 180.00 260.00" xmlns="http://www.w3.org/2000/svg" xmlns:xlink="http://www.w3.org/1999/xlink">
<g id="graph0" class="graph" transform="scale(1 1) rotate(0) translate(4 256)">
<!-- RequestVariable -->
<g id="node1" class="node">
<title>RequestVariable</title>
<polygon fill="#febdb2" stroke="#e45649" stroke-width="1.5" points="160.8,-252 11.25,-252 11.25,-216 160.8,-216 160.8,-252"/>
<text xml:space="preserve" text-anchor="middle" x="86.03" y="-229.32" font-family="Times,serif" font-size="14.00" fill="#333333">Request variable</text>
</g>
<!-- LocalEnvironment1 -->
<g id="node2" class="node">
<title>LocalEnvironment1</title>
<polygon fill="#c1c6fb" stroke="#4078f2" stroke-width="1.5" points="167.93,-180 4.12,-180 4.12,-144 167.93,-144 167.93,-180"/>
<text xml:space="preserve" text-anchor="middle" x="86.03" y="-157.32" font-family="Times,serif" font-size="14.00" fill="#333333">Local Environment</text>
</g>
<!-- RequestVariable&#45;&gt;LocalEnvironment1 -->
<g id="edge1" class="edge">
<title>RequestVariable&#45;&gt;LocalEnvironment1</title>
<path fill="none" stroke="#a0a1a7" stroke-width="1.2" d="M86.03,-215.34C86.03,-208.32 86.03,-200.06 86.03,-192.2"/>
<polygon fill="#a0a1a7" stroke="#a0a1a7" stroke-width="1.2" points="89.53,-192.23 86.03,-182.23 82.53,-192.23 89.53,-192.23"/>
</g>
<!-- LocalEnvironment2 -->
<g id="node3" class="node">
<title>LocalEnvironment2</title>
<polygon fill="#c1c6fb" stroke="#4078f2" stroke-width="1.5" points="167.93,-108 4.12,-108 4.12,-72 167.93,-72 167.93,-108"/>
<text xml:space="preserve" text-anchor="middle" x="86.03" y="-85.33" font-family="Times,serif" font-size="14.00" fill="#333333">Local Environment</text>
</g>
<!-- LocalEnvironment1&#45;&gt;LocalEnvironment2 -->
<g id="edge2" class="edge">
<title>LocalEnvironment1&#45;&gt;LocalEnvironment2</title>
<path fill="none" stroke="#a0a1a7" stroke-width="1.2" d="M86.03,-143.34C86.03,-136.32 86.03,-128.06 86.03,-120.2"/>
<polygon fill="#a0a1a7" stroke="#a0a1a7" stroke-width="1.2" points="89.53,-120.23 86.03,-110.23 82.53,-120.23 89.53,-120.23"/>
</g>
<!-- GlobalEnvironment -->
<g id="node4" class="node">
<title>GlobalEnvironment</title>
<polygon fill="#c1c6fb" stroke="#4078f2" stroke-width="1.5" points="172.05,-36 0,-36 0,0 172.05,0 172.05,-36"/>
<text xml:space="preserve" text-anchor="middle" x="86.03" y="-13.32" font-family="Times,serif" font-size="14.00" fill="#333333">Global Environment</text>
</g>
<!-- LocalEnvironment2&#45;&gt;GlobalEnvironment -->
<g id="edge3" class="edge">
<title>LocalEnvironment2&#45;&gt;GlobalEnvironment</title>
<path fill="none" stroke="#a0a1a7" stroke-width="1.2" d="M86.03,-71.34C86.03,-64.32 86.03,-56.06 86.03,-48.2"/>
<polygon fill="#a0a1a7" stroke="#a0a1a7" stroke-width="1.2" points="89.53,-48.23 86.03,-38.23 82.53,-48.23 89.53,-48.23"/>
</g>
</g>
</svg>
