<?xml version="1.0" encoding="UTF-8" standalone="no"?>
<!DOCTYPE svg PUBLIC "-//W3C//DTD SVG 1.1//EN"
 "http://www.w3.org/Graphics/SVG/1.1/DTD/svg11.dtd">
<!-- Generated by graphviz version 14.1.5 (0)
 -->
<!-- Pages: 1 -->
<svg width="180pt" height="260pt"
 viewBox="0.00 0.00 180.00 260.00" xmlns="http://www.w3.org/2000/svg" xmlns:xlink="http://www.w3.org/1999/xlink">
<g id="graph0" class="graph" transform="scale(1 1) rotate(0) translate(4 256)">
<!-- RequestVariable -->
<g id="node1" class="node">
<title>RequestVariable</title>
<polygon fill="#f0c3a0" stroke="black" points="160.8,-252 11.25,-252 11.25,-216 160.8,-216 160.8,-252"/>
<text xml:space="preserve" text-anchor="middle" x="86.03" y="-229.32" font-family="Times,serif" font-size="14.00" fill="#222222">Request variable</text>
</g>
<!-- LocalEnvironment1 -->
<g id="node2" class="node">
<title>LocalEnvironment1</title>
<polygon fill="#cdace9" stroke="black" points="167.93,-180 4.12,-180 4.12,-144 167.93,-144 167.93,-180"/>
<text xml:space="preserve" text-anchor="middle" x="86.03" y="-157.32" font-family="Times,serif" font-size="14.00" fill="#222222">Local Environment</text>
</g>
<!-- RequestVariable&#45;&gt;LocalEnvironment1 -->
<g id="edge1" class="edge">
<title>RequestVariable&#45;&gt;LocalEnvironment1</title>
<path fill="none" stroke="#444444" stroke-width="1.2" d="M86.03,-215.7C86.03,-208.49 86.03,-199.93 86.03,-191.82"/>
<polygon fill="#444444" stroke="#444444" stroke-width="1.2" points="89.53,-191.92 86.03,-181.92 82.53,-191.92 89.53,-191.92"/>
</g>
<!-- LocalEnvironment2 -->
<g id="node3" class="node">
<title>LocalEnvironment2</title>
<polygon fill="#cdace9" stroke="black" points="167.93,-108 4.12,-108 4.12,-72 167.93,-72 167.93,-108"/>
<text xml:space="preserve" text-anchor="middle" x="86.03" y="-85.33" font-family="Times,serif" font-size="14.00" fill="#222222">Local Environment</text>
</g>
<!-- LocalEnvironment1&#45;&gt;LocalEnvironment2 -->
<g id="edge2" class="edge">
<title>LocalEnvironment1&#45;&gt;LocalEnvironment2</title>
<path fill="none" stroke="#444444" stroke-width="1.2" d="M86.03,-143.7C86.03,-136.49 86.03,-127.93 86.03,-119.82"/>
<polygon fill="#444444" stroke="#444444" stroke-width="1.2" points="89.53,-119.92 86.03,-109.92 82.53,-119.92 89.53,-119.92"/>
</g>
<!-- GlobalEnvironment -->
<g id="node4" class="node">
<title>GlobalEnvironment</title>
<polygon fill="#cdace9" stroke="black" points="172.05,-36 0,-36 0,0 172.05,0 172.05,-36"/>
<text xml:space="preserve" text-anchor="middle" x="86.03" y="-13.32" font-family="Times,serif" font-size="14.00" fill="#222222">Global Environment</text>
</g>
<!-- LocalEnvironment2&#45;&gt;GlobalEnvironment -->
<g id="edge3" class="edge">
<title>LocalEnvironment2&#45;&gt;GlobalEnvironment</title>
<path fill="none" stroke="#444444" stroke-width="1.2" d="M86.03,-71.7C86.03,-64.49 86.03,-55.93 86.03,-47.82"/>
<polygon fill="#444444" stroke="#444444" stroke-width="1.2" points="89.53,-47.92 86.03,-37.92 82.53,-47.92 89.53,-47.92"/>
</g>
</g>
</svg>
