<?xml version="1.0" encoding="UTF-8" standalone="no"?>
<!DOCTYPE svg PUBLIC "-//W3C//DTD SVG 1.1//EN"
 "http://www.w3.org/Graphics/SVG/1.1/DTD/svg11.dtd">
<!-- Generated by graphviz version 14.1.5 (0)
 -->
<!-- Pages: 1 -->
<svg width="243pt" height="223pt"
 viewBox="0.00 0.00 243.00 223.00" xmlns="http://www.w3.org/2000/svg" xmlns:xlink="http://www.w3.org/1999/xlink">
<g id="graph0" class="graph" transform="scale(1 1) rotate(0) translate(4 218.5)">
<!-- GlobalEnvironment -->
<g id="node1" class="node">
<title>GlobalEnvironment</title>
<polygon fill="#9b5bd4" stroke="black" points="203.55,-214.5 31.5,-214.5 31.5,-178.5 203.55,-178.5 203.55,-214.5"/>
<text xml:space="preserve" text-anchor="middle" x="117.53" y="-191.82" font-family="Times,serif" font-size="14.00" fill="#222222">Global Environment</text>
</g>
<!-- Env1 -->
<g id="node2" class="node">
<title>Env1</title>
<polygon fill="#9b5bd4" stroke="black" points="235.05,-125.25 0,-125.25 0,-89.25 235.05,-89.25 235.05,-125.25"/>
<text xml:space="preserve" text-anchor="middle" x="117.53" y="-102.58" font-family="Times,serif" font-size="14.00" fill="#222222">Environment: (lambda (x) ...)</text>
</g>
<!-- GlobalEnvironment&#45;&gt;Env1 -->
<g id="edge1" class="edge">
<title>GlobalEnvironment&#45;&gt;Env1</title>
<path fill="none" stroke="#444444" stroke-width="1.2" d="M117.53,-178.26C117.53,-166.55 117.53,-150.78 117.53,-137.17"/>
<polygon fill="#444444" stroke="#444444" stroke-width="1.2" points="121.03,-137.27 117.53,-127.27 114.03,-137.27 121.03,-137.27"/>
<text xml:space="preserve" text-anchor="middle" x="137.03" y="-147.2" font-family="Times,serif" font-size="14.00" fill="#444444"> child</text>
</g>
<!-- Env2 -->
<g id="node3" class="node">
<title>Env2</title>
<polygon fill="#9b5bd4" stroke="black" points="235.05,-36 0,-36 0,0 235.05,0 235.05,-36"/>
<text xml:space="preserve" text-anchor="middle" x="117.53" y="-13.32" font-family="Times,serif" font-size="14.00" fill="#222222">Environment: (lambda (y) ...)</text>
</g>
<!-- Env1&#45;&gt;Env2 -->
<g id="edge2" class="edge">
<title>Env1&#45;&gt;Env2</title>
<path fill="none" stroke="#444444" stroke-width="1.2" d="M117.53,-89.01C117.53,-77.3 117.53,-61.53 117.53,-47.92"/>
<polygon fill="#444444" stroke="#444444" stroke-width="1.2" points="121.03,-48.02 117.53,-38.02 114.03,-48.02 121.03,-48.02"/>
<text xml:space="preserve" text-anchor="middle" x="137.03" y="-57.95" font-family="Times,serif" font-size="14.00" fill="#444444"> child</text>
</g>
</g>
</svg>
