<svg xmlns="http://www.w3.org/2000/svg" viewBox="0 0 256 256" width="256" height="256">
  <rect width="256" height="256" fill="#3d2d6e"/>
  <path d="M78.58498023715416 200.69565217391306 32.32411067193676 73.62845849802373Q29.0197628458498 64.01581027667984 19.10671936758893 60.110671936758905L14.0 58.308300395256936V55.30434782608697H87.59683794466403V58.308300395256936L83.0909090909091 59.509881422924906Q71.37549407114625 63.11462450592887 75.28063241106719 73.92885375494072L103.21739130434781 158.9407114624506L128.1501976284585 92.85375494071147L122.44268774703556 75.7312252964427Q120.3399209486166 69.12252964426878 118.08695652173913 65.66798418972333Q115.83399209486166 62.213438735177874 112.22924901185769 60.711462450592904L107.12252964426878 58.308300395256936V55.30434782608697H169.30434782608694V58.308300395256936L165.098814229249 60.110671936758905Q160.59288537549406 61.913043478260875 159.69169960474306 64.91699604743084Q158.7905138339921 67.92094861660081 160.89328063241106 73.92885375494072L188.5296442687747 157.43873517786562L217.0671936758893 74.52964426877472Q221.27272727272725 63.11462450592887 212.56126482213438 60.110671936758905L205.95256916996047 58.308300395256936V55.30434782608697H241.99999999999997V58.308300395256936L234.79051383399207 60.411067193675905Q229.68379446640316 61.913043478260875 227.4308300395257 65.06719367588934Q225.1778656126482 68.22134387351781 223.37549407114622 73.62845849802373L180.1185770750988 200.69565217391306H164.798418972332L131.45454545454544 102.46640316205534L96.00790513833991 200.69565217391306Z" fill="#f4f2ef"/>
</svg>
