<?xml version="1.0" encoding="UTF-8" standalone="no"?>
<!DOCTYPE svg PUBLIC "-//W3C//DTD SVG 1.1//EN"
 "http://www.w3.org/Graphics/SVG/1.1/DTD/svg11.dtd">
<!-- Generated by graphviz version 14.1.4 (0)
 -->
<!-- Title: IFTClient Pages: 1 -->
<svg width="195pt" height="196pt"
 viewBox="0.00 0.00 195.00 196.00" xmlns="http://www.w3.org/2000/svg" xmlns:xlink="http://www.w3.org/1999/xlink">
<g id="graph0" class="graph" transform="scale(1 1) rotate(0) translate(4 191.5)">
<title>IFTClient</title>
<polygon fill="white" stroke="none" points="-4,4 -4,-191.5 190.75,-191.5 190.75,4 -4,4"/>
<g id="clust1" class="cluster">
<title>cluster_cdn</title>
<polygon fill="none" stroke="gray" points="8,-8 8,-142 95.5,-142 95.5,-8 8,-8"/>
<text xml:space="preserve" text-anchor="middle" x="51.75" y="-126.6" font-family="sans-serif" font-size="12.00">CDN</text>
</g>
<!-- webpage -->
<g id="node1" class="node">
<title>webpage</title>
<polygon fill="none" stroke="black" points="15.25,-151 15.25,-187 88.25,-187 88.25,-151 15.25,-151"/>
<text xml:space="preserve" text-anchor="middle" x="51.75" y="-166.6" font-family="sans-serif" font-size="12.00">Web Page</text>
</g>
<!-- browser -->
<g id="node2" class="node">
<title>browser</title>
<polygon fill="none" stroke="black" points="124.25,-72 124.25,-108 186.75,-108 186.75,-72 124.25,-72"/>
<text xml:space="preserve" text-anchor="middle" x="155.5" y="-87.6" font-family="sans-serif" font-size="12.00">Browser</text>
</g>
<!-- webpage&#45;&gt;browser -->
<g id="edge1" class="edge">
<title>webpage&#45;&gt;browser</title>
<path fill="none" stroke="black" d="M88.64,-150.62C91.01,-149.13 93.32,-147.58 95.5,-146 107.48,-137.33 119.52,-126.39 129.58,-116.48"/>
<polygon fill="black" stroke="black" points="131.9,-119.12 136.45,-109.55 126.93,-114.19 131.9,-119.12"/>
</g>
<!-- basefont -->
<g id="node3" class="node">
<title>basefont</title>
<polygon fill="none" stroke="black" points="16,-17 16,-53 87.5,-53 87.5,-17 16,-17"/>
<text xml:space="preserve" text-anchor="middle" x="51.75" y="-32.6" font-family="sans-serif" font-size="12.00">Base Font</text>
</g>
<!-- basefont&#45;&gt;browser -->
<g id="edge2" class="edge">
<title>basefont&#45;&gt;browser</title>
<path fill="none" stroke="black" d="M86.91,-53.47C95.64,-58.18 105.1,-63.3 114.11,-68.17"/>
<polygon fill="black" stroke="black" points="112.22,-71.13 122.68,-72.8 115.55,-64.97 112.22,-71.13"/>
</g>
<!-- patches -->
<g id="node4" class="node">
<title>patches</title>
<polygon fill="none" stroke="black" points="21.25,-72 21.25,-108 82.25,-108 82.25,-72 21.25,-72"/>
<text xml:space="preserve" text-anchor="middle" x="51.75" y="-87.6" font-family="sans-serif" font-size="12.00">Patches</text>
</g>
<!-- patches&#45;&gt;browser -->
<g id="edge3" class="edge">
<title>patches&#45;&gt;browser</title>
<path fill="none" stroke="black" d="M82.73,-90C92.08,-90 102.58,-90 112.59,-90"/>
<polygon fill="black" stroke="black" points="112.52,-93.5 122.52,-90 112.52,-86.5 112.52,-93.5"/>
</g>
</g>
</svg>
