<?xml version="1.0" encoding="UTF-8" standalone="no"?>
<!DOCTYPE svg PUBLIC "-//W3C//DTD SVG 1.1//EN"
 "http://www.w3.org/Graphics/SVG/1.1/DTD/svg11.dtd">
<!-- Generated by graphviz version 14.1.5 (0)
 -->
<!-- Title: IFTClient Pages: 1 -->
<svg width="195pt" height="191pt"
 viewBox="0.00 0.00 195.00 191.00" xmlns="http://www.w3.org/2000/svg" xmlns:xlink="http://www.w3.org/1999/xlink">
<g id="graph0" class="graph" transform="scale(1 1) rotate(0) translate(4 187)">
<title>IFTClient</title>
<g id="clust1" class="cluster">
<title>cluster_cdn</title>
<polygon fill="#bbbbbb" stroke="#bbbbbb" points="8,-8 8,-139 95.5,-139 95.5,-8 8,-8"/>
<text xml:space="preserve" text-anchor="middle" x="51.75" y="-123.6" font-family="sans-serif" font-size="12.00">CDN</text>
</g>
<!-- webpage -->
<g id="node1" class="node">
<title>webpage</title>
<polygon fill="#fff7e6" stroke="#b07a2b" stroke-width="1.2" points="82.25,-183 15.25,-183 15.25,-147 88.25,-147 88.25,-177 82.25,-183"/>
<polyline fill="none" stroke="#b07a2b" stroke-width="1.2" points="82.25,-183 82.25,-177"/>
<polyline fill="none" stroke="#b07a2b" stroke-width="1.2" points="88.25,-177 82.25,-177"/>
<text xml:space="preserve" text-anchor="middle" x="51.75" y="-162.22" font-family="sans-serif" font-size="12.00">Web Page</text>
</g>
<!-- browser -->
<g id="node2" class="node">
<title>browser</title>
<polygon fill="#e6f0fb" stroke="#2b5a9b" stroke-width="1.2" points="186.75,-106 124.25,-106 124.25,-70 186.75,-70 186.75,-106"/>
<text xml:space="preserve" text-anchor="middle" x="155.5" y="-85.22" font-family="sans-serif" font-size="12.00">Browser</text>
</g>
<!-- webpage&#45;&gt;browser -->
<g id="edge1" class="edge">
<title>webpage&#45;&gt;browser</title>
<path fill="none" stroke="#555555" d="M88.64,-147.47C91.01,-146.03 93.31,-144.54 95.5,-143 107.88,-134.3 120.32,-123.14 130.57,-113.15"/>
<polygon fill="#555555" stroke="#555555" points="132.51,-115.17 136.21,-107.54 128.56,-111.2 132.51,-115.17"/>
</g>
<!-- basefont -->
<g id="node3" class="node">
<title>basefont</title>
<polygon fill="#fff7e6" stroke="#b07a2b" stroke-width="1.2" points="81.5,-52 16,-52 16,-16 87.5,-16 87.5,-46 81.5,-52"/>
<polyline fill="none" stroke="#b07a2b" stroke-width="1.2" points="81.5,-52 81.5,-46"/>
<polyline fill="none" stroke="#b07a2b" stroke-width="1.2" points="87.5,-46 81.5,-46"/>
<text xml:space="preserve" text-anchor="middle" x="51.75" y="-31.23" font-family="sans-serif" font-size="12.00">Base Font</text>
</g>
<!-- basefont&#45;&gt;browser -->
<g id="edge2" class="edge">
<title>basefont&#45;&gt;browser</title>
<path fill="none" stroke="#555555" d="M87.77,-52.58C96.75,-57.35 106.46,-62.5 115.62,-67.36"/>
<polygon fill="#555555" stroke="#555555" points="114.12,-69.74 122.5,-71.02 116.75,-64.79 114.12,-69.74"/>
</g>
<!-- patches -->
<g id="node4" class="node">
<title>patches</title>
<polygon fill="#fff7e6" stroke="#b07a2b" stroke-width="1.2" points="76.25,-106 21.25,-106 21.25,-70 82.25,-70 82.25,-100 76.25,-106"/>
<polyline fill="none" stroke="#b07a2b" stroke-width="1.2" points="76.25,-106 76.25,-100"/>
<polyline fill="none" stroke="#b07a2b" stroke-width="1.2" points="82.25,-100 76.25,-100"/>
<text xml:space="preserve" text-anchor="middle" x="51.75" y="-85.22" font-family="sans-serif" font-size="12.00">Patches</text>
</g>
<!-- patches&#45;&gt;browser -->
<g id="edge3" class="edge">
<title>patches&#45;&gt;browser</title>
<path fill="none" stroke="#555555" d="M82.73,-88C92.6,-88 103.75,-88 114.26,-88"/>
<polygon fill="#555555" stroke="#555555" points="114.16,-90.8 122.16,-88 114.16,-85.2 114.16,-90.8"/>
</g>
</g>
</svg>
