<?xml version="1.0" encoding="UTF-8" standalone="no"?>
<!DOCTYPE svg PUBLIC "-//W3C//DTD SVG 1.1//EN"
 "http://www.w3.org/Graphics/SVG/1.1/DTD/svg11.dtd">
<!-- Generated by graphviz version 14.1.4 (0)
 -->
<!-- Title: IFT Pages: 1 -->
<svg width="278pt" height="164pt"
 viewBox="0.00 0.00 278.00 164.00" xmlns="http://www.w3.org/2000/svg" xmlns:xlink="http://www.w3.org/1999/xlink">
<g id="graph0" class="graph" transform="scale(1 1) rotate(0) translate(4 159.75)">
<title>IFT</title>
<polygon fill="white" stroke="none" points="-4,4 -4,-159.75 274,-159.75 274,4 -4,4"/>
<!-- font -->
<g id="node1" class="node">
<title>font</title>
<polygon fill="none" stroke="black" points="0,-75.25 0,-111.25 63.25,-111.25 63.25,-75.25 0,-75.25"/>
<text xml:space="preserve" text-anchor="middle" x="31.62" y="-90.85" font-family="sans-serif" font-size="12.00">Font File</text>
</g>
<!-- encoder -->
<g id="node4" class="node">
<title>encoder</title>
<polygon fill="none" stroke="black" points="99.25,-72 99.25,-114.5 162.5,-114.5 162.5,-72 99.25,-72"/>
<text xml:space="preserve" text-anchor="middle" x="130.88" y="-99.1" font-family="sans-serif" font-size="12.00">IFT</text>
<text xml:space="preserve" text-anchor="middle" x="130.88" y="-81.85" font-family="sans-serif" font-size="12.00">Encoder</text>
</g>
<!-- font&#45;&gt;encoder -->
<g id="edge1" class="edge">
<title>font&#45;&gt;encoder</title>
<path fill="none" stroke="black" d="M63.66,-93.25C71.21,-93.25 79.4,-93.25 87.38,-93.25"/>
<polygon fill="black" stroke="black" points="87.28,-96.75 97.28,-93.25 87.28,-89.75 87.28,-96.75"/>
</g>
<!-- base -->
<g id="node2" class="node">
<title>base</title>
<polygon fill="none" stroke="black" points="198.5,-119.25 198.5,-155.25 270,-155.25 270,-119.25 198.5,-119.25"/>
<text xml:space="preserve" text-anchor="middle" x="234.25" y="-134.85" font-family="sans-serif" font-size="12.00">Base Font</text>
</g>
<!-- patches -->
<g id="node3" class="node">
<title>patches</title>
<polygon fill="none" stroke="black" points="204.12,-0.5 204.12,-100 264.38,-100 264.38,-0.5 204.12,-0.5"/>
<text xml:space="preserve" text-anchor="middle" x="234.25" y="-84.6" font-family="sans-serif" font-size="12.00">Patch 0</text>
<polyline fill="none" stroke="black" points="204.12,-74.75 264.38,-74.75"/>
<text xml:space="preserve" text-anchor="middle" x="234.25" y="-59.35" font-family="sans-serif" font-size="12.00">Patch 1</text>
<polyline fill="none" stroke="black" points="204.12,-49.5 264.38,-49.5"/>
<text xml:space="preserve" text-anchor="middle" x="234.25" y="-34.1" font-family="sans-serif" font-size="12.00">⋮</text>
<polyline fill="none" stroke="black" points="204.12,-25.75 264.38,-25.75"/>
<text xml:space="preserve" text-anchor="middle" x="234.25" y="-10.35" font-family="sans-serif" font-size="12.00">Patch N</text>
</g>
<!-- encoder&#45;&gt;base -->
<g id="edge2" class="edge">
<title>encoder&#45;&gt;base</title>
<path fill="none" stroke="black" d="M162.84,-106.69C170.7,-110.1 179.31,-113.84 187.73,-117.49"/>
<polygon fill="black" stroke="black" points="186.27,-120.67 196.83,-121.44 189.05,-114.25 186.27,-120.67"/>
</g>
<!-- encoder&#45;&gt;patches -->
<g id="edge3" class="edge">
<title>encoder&#45;&gt;patches</title>
<path fill="none" stroke="black" d="M162.84,-80.11C172.52,-76.01 183.34,-71.42 193.53,-67.1"/>
<polygon fill="black" stroke="black" points="194.63,-70.43 202.47,-63.31 191.89,-63.99 194.63,-70.43"/>
</g>
</g>
</svg>
