<?xml version="1.0" encoding="UTF-8" standalone="no"?>
<!DOCTYPE svg PUBLIC "-//W3C//DTD SVG 1.1//EN"
 "http://www.w3.org/Graphics/SVG/1.1/DTD/svg11.dtd">
<!-- Generated by graphviz version 15.1.0 (0)
 -->
<!-- Title: IFT Pages: 1 -->
<svg width="278pt" height="162pt"
 viewBox="0.00 0.00 278.00 162.00" xmlns="http://www.w3.org/2000/svg" xmlns:xlink="http://www.w3.org/1999/xlink">
<g id="graph0" class="graph" transform="scale(1 1) rotate(0) translate(4 157.5)">
<title>IFT</title>
<!-- font -->
<g id="node1" class="node">
<title>font</title>
<polygon fill="#fafafa" stroke="#c18401" stroke-width="1.2" points="57.25,-110.5 0,-110.5 0,-74.5 63.25,-74.5 63.25,-104.5 57.25,-110.5"/>
<polyline fill="none" stroke="#c18401" stroke-width="1.2" points="57.25,-110.5 57.25,-104.5"/>
<polyline fill="none" stroke="#c18401" stroke-width="1.2" points="63.25,-104.5 57.25,-104.5"/>
<text xml:space="preserve" text-anchor="middle" x="31.62" y="-89.72" font-family="sans-serif" font-size="12.00">Font File</text>
</g>
<!-- encoder -->
<g id="node2" class="node">
<title>encoder</title>
<polygon fill="#f3f0f7" stroke="#4078f2" stroke-width="1.2" points="162.5,-113.75 99.25,-113.75 99.25,-71.25 162.5,-71.25 162.5,-113.75"/>
<text xml:space="preserve" text-anchor="middle" x="130.88" y="-98.35" font-family="sans-serif" font-size="12.00">IFT</text>
<text xml:space="preserve" text-anchor="middle" x="130.88" y="-81.1" font-family="sans-serif" font-size="12.00">Encoder</text>
</g>
<!-- font&#45;&gt;encoder -->
<g id="edge1" class="edge">
<title>font&#45;&gt;encoder</title>
<path fill="none" stroke="#a0a1a7" d="M63.66,-92.5C71.82,-92.5 80.74,-92.5 89.32,-92.5"/>
<polygon fill="#a0a1a7" stroke="#a0a1a7" points="89.28,-95.3 97.28,-92.5 89.28,-89.7 89.28,-95.3"/>
</g>
<!-- base -->
<g id="node3" class="node">
<title>base</title>
<polygon fill="#fafafa" stroke="#c18401" stroke-width="1.2" points="264,-153.5 198.5,-153.5 198.5,-117.5 270,-117.5 270,-147.5 264,-153.5"/>
<polyline fill="none" stroke="#c18401" stroke-width="1.2" points="264,-153.5 264,-147.5"/>
<polyline fill="none" stroke="#c18401" stroke-width="1.2" points="270,-147.5 264,-147.5"/>
<text xml:space="preserve" text-anchor="middle" x="234.25" y="-132.72" font-family="sans-serif" font-size="12.00">Base Font</text>
</g>
<!-- encoder&#45;&gt;base -->
<g id="edge2" class="edge">
<title>encoder&#45;&gt;base</title>
<path fill="none" stroke="#a0a1a7" d="M162.84,-105.64C171.31,-109.23 180.66,-113.19 189.69,-117.02"/>
<polygon fill="#a0a1a7" stroke="#a0a1a7" points="188.37,-119.5 196.83,-120.05 190.56,-114.35 188.37,-119.5"/>
</g>
<!-- patches -->
<g id="node4" class="node">
<title>patches</title>
<polygon fill="#fafafa" stroke="#c18401" stroke-width="1.2" points="204.12,-0.5 204.12,-98.5 264.38,-98.5 264.38,-0.5 204.12,-0.5"/>
<text xml:space="preserve" text-anchor="middle" x="234.25" y="-83.1" font-family="sans-serif" font-size="12.00">Patch 0</text>
<polyline fill="none" stroke="#c18401" stroke-width="1.2" points="204.12,-73.25 264.38,-73.25"/>
<text xml:space="preserve" text-anchor="middle" x="234.25" y="-57.85" font-family="sans-serif" font-size="12.00">Patch 1</text>
<polyline fill="none" stroke="#c18401" stroke-width="1.2" points="204.12,-48 264.38,-48"/>
<text xml:space="preserve" text-anchor="middle" x="234.25" y="-32.6" font-family="sans-serif" font-size="12.00">⋮</text>
<polyline fill="none" stroke="#c18401" stroke-width="1.2" points="204.12,-25.75 264.38,-25.75"/>
<text xml:space="preserve" text-anchor="middle" x="234.25" y="-10.35" font-family="sans-serif" font-size="12.00">Patch N</text>
</g>
<!-- encoder&#45;&gt;patches -->
<g id="edge3" class="edge">
<title>encoder&#45;&gt;patches</title>
<path fill="none" stroke="#a0a1a7" d="M162.84,-79.36C173.03,-75.04 184.48,-70.19 195.14,-65.67"/>
<polygon fill="#a0a1a7" stroke="#a0a1a7" points="196.2,-68.26 202.47,-62.56 194.01,-63.1 196.2,-68.26"/>
</g>
</g>
</svg>
